<svg xmlns="http://www.w3.org/2000/svg" width="1920" height="1080" viewBox="0 0 1920 1080">
<defs>
<marker id="arr_333333" viewBox="0 0 10 10" refX="9" refY="5" markerWidth="7" markerHeight="7" orient="auto-start-reverse"><path d="M 0 0 L 10 5 L 0 10 z" fill="#333333"/></marker>
<marker id="arr_34A853" viewBox="0 0 10 10" refX="9" refY="5" markerWidth="7" markerHeight="7" orient="auto-start-reverse"><path d="M 0 0 L 10 5 L 0 10 z" fill="#34A853"/></marker>
<marker id="arr_F4A100" viewBox="0 0 10 10" refX="9" refY="5" markerWidth="7" markerHeight="7" orient="auto-start-reverse"><path d="M 0 0 L 10 5 L 0 10 z" fill="#F4A100"/></marker>
<marker id="arr_00ACC1" viewBox="0 0 10 10" refX="9" refY="5" markerWidth="7" markerHeight="7" orient="auto-start-reverse"><path d="M 0 0 L 10 5 L 0 10 z" fill="#00ACC1"/></marker>
<marker id="arr_888888" viewBox="0 0 10 10" refX="9" refY="5" markerWidth="7" markerHeight="7" orient="auto-start-reverse"><path d="M 0 0 L 10 5 L 0 10 z" fill="#888888"/></marker>
<filter id="cardshadow" x="-10%" y="-10%" width="120%" height="130%"><feDropShadow dx="0" dy="2" stdDeviation="3" flood-color="#000000" flood-opacity="0.08"/></filter>
</defs>
<rect width="1920" height="1080" fill="#FAFBFC"/>
<text x="960.0" y="64" font-family="Noto Sans CJK KR" font-size="40" font-weight="800" fill="#111827" text-anchor="middle">서울시 상권 분석 대시보드 — 데이터 파이프라인</text>
<rect x="30" y="110" width="260" height="830" rx="18" fill="#EDF3FE" stroke="#4285F4" stroke-width="2" />
<text x="160.0" y="154" font-family="Noto Sans CJK KR" font-size="25" font-weight="800" fill="#4285F4" text-anchor="middle">외부</text>
<rect x="310" y="110" width="450" height="830" rx="18" fill="#EAF6EC" stroke="#34A853" stroke-width="2" />
<text x="535.0" y="154" font-family="Noto Sans CJK KR" font-size="25" font-weight="800" fill="#34A853" text-anchor="middle">ETL 파이프라인</text>
<rect x="780" y="110" width="320" height="830" rx="18" fill="#FEF7E0" stroke="#E8A100" stroke-width="2" />
<text x="940.0" y="154" font-family="Noto Sans CJK KR" font-size="25" font-weight="800" fill="#E8A100" text-anchor="middle">데이터 저장소 (Parquet)</text>
<rect x="1120" y="110" width="440" height="830" rx="18" fill="#E2F6F9" stroke="#00ACC1" stroke-width="2" />
<text x="1340.0" y="154" font-family="Noto Sans CJK KR" font-size="25" font-weight="800" fill="#00ACC1" text-anchor="middle">분석</text>
<rect x="1580" y="110" width="310" height="830" rx="18" fill="#212B36" stroke="#212B36" stroke-width="2" />
<text x="1735.0" y="154" font-family="Noto Sans CJK KR" font-size="25" font-weight="800" fill="#FFFFFF" text-anchor="middle">대시보드</text>
<rect x="55" y="200" width="210" height="105" rx="14" fill="#FFFFFF" stroke="#D8DEE6" stroke-width="1.5" filter="url(#cardshadow)"/>
<circle cx="85" cy="255.5" r="11" fill="none" stroke="#4285F4" stroke-width="3"/>
<circle cx="100" cy="250.5" r="13" fill="none" stroke="#4285F4" stroke-width="3"/>
<line x1="92" y1="237.5" x2="92" y2="263.5" stroke="#4285F4" stroke-width="2"/>
<ellipse cx="92" cy="250.5" rx="13" ry="6" fill="none" stroke="#4285F4" stroke-width="2"/>
<text x="186.0" y="246.5" font-family="Noto Sans CJK KR" font-size="21" font-weight="700" fill="#1F2937" text-anchor="middle">서울 열린데이터</text>
<text x="186.0" y="274.5" font-family="Noto Sans CJK KR" font-size="16" font-weight="400" fill="#6B7280" text-anchor="middle">상권 API</text>
<rect x="55" y="430" width="210" height="105" rx="14" fill="#FFFFFF" stroke="#D8DEE6" stroke-width="1.5" filter="url(#cardshadow)"/>
<path d="M 82 467.5 h 15 l 7 7 v 23 h -22 z" fill="none" stroke="#4285F4" stroke-width="3" stroke-linejoin="round"/>
<line x1="87" y1="480.5" x2="99" y2="480.5" stroke="#4285F4" stroke-width="2.5"/>
<line x1="87" y1="487.5" x2="99" y2="487.5" stroke="#4285F4" stroke-width="2.5"/>
<line x1="87" y1="494.5" x2="99" y2="494.5" stroke="#4285F4" stroke-width="2.5"/>
<text x="186.0" y="476.5" font-family="Noto Sans CJK KR" font-size="21" font-weight="700" fill="#1F2937" text-anchor="middle">환경설정</text>
<text x="186.0" y="504.5" font-family="Noto Sans CJK KR" font-size="16" font-weight="400" fill="#6B7280" text-anchor="middle">.env / Secrets</text>
<rect x="55" y="660" width="210" height="105" rx="14" fill="#FFFFFF" stroke="#D8DEE6" stroke-width="1.5" filter="url(#cardshadow)"/>
<circle cx="93" cy="704.5" r="7" fill="#4285F4"/>
<path d="M 80 728.5 a 13 13 0 0 1 26 0 z" fill="#4285F4"/>
<text x="186.0" y="706.5" font-family="Noto Sans CJK KR" font-size="21" font-weight="700" fill="#1F2937" text-anchor="middle">사용자</text>
<text x="186.0" y="734.5" font-family="Noto Sans CJK KR" font-size="16" font-weight="400" fill="#6B7280" text-anchor="middle">브라우저</text>
<rect x="340" y="185" width="400" height="85" rx="14" fill="#FFFFFF" stroke="#D8DEE6" stroke-width="1.5" filter="url(#cardshadow)"/>
<circle cx="378" cy="227.5" r="9" fill="none" stroke="#34A853" stroke-width="4"/>
<line x1="378" y1="227.5" x2="378" y2="210.5" stroke="#34A853" stroke-width="4.5" transform="rotate(0 378 227.5)"/>
<line x1="378" y1="227.5" x2="378" y2="210.5" stroke="#34A853" stroke-width="4.5" transform="rotate(45 378 227.5)"/>
<line x1="378" y1="227.5" x2="378" y2="210.5" stroke="#34A853" stroke-width="4.5" transform="rotate(90 378 227.5)"/>
<line x1="378" y1="227.5" x2="378" y2="210.5" stroke="#34A853" stroke-width="4.5" transform="rotate(135 378 227.5)"/>
<line x1="378" y1="227.5" x2="378" y2="210.5" stroke="#34A853" stroke-width="4.5" transform="rotate(180 378 227.5)"/>
<line x1="378" y1="227.5" x2="378" y2="210.5" stroke="#34A853" stroke-width="4.5" transform="rotate(225 378 227.5)"/>
<line x1="378" y1="227.5" x2="378" y2="210.5" stroke="#34A853" stroke-width="4.5" transform="rotate(270 378 227.5)"/>
<line x1="378" y1="227.5" x2="378" y2="210.5" stroke="#34A853" stroke-width="4.5" transform="rotate(315 378 227.5)"/>
<circle cx="378" cy="227.5" r="9" fill="#FFFFFF" stroke="#34A853" stroke-width="4"/>
<text x="566.0" y="221.5" font-family="Noto Sans CJK KR" font-size="21" font-weight="700" fill="#1F2937" text-anchor="middle">run_pipeline.py</text>
<text x="566.0" y="249.5" font-family="Noto Sans CJK KR" font-size="16" font-weight="400" fill="#6B7280" text-anchor="middle">오케스트레이터</text>
<rect x="340" y="330" width="240" height="92" rx="14" fill="#FFFFFF" stroke="#D8DEE6" stroke-width="1.5" filter="url(#cardshadow)"/>
<line x1="378" y1="362.0" x2="378" y2="381.0" stroke="#34A853" stroke-width="4"/>
<path d="M 370 374.0 L 378 383.0 L 386 374.0" fill="none" stroke="#34A853" stroke-width="4" stroke-linecap="round" stroke-linejoin="round"/>
<path d="M 365 388.0 v 4 h 26 v -4" fill="none" stroke="#34A853" stroke-width="3.5" stroke-linecap="round"/>
<text x="486.0" y="370.0" font-family="Noto Sans CJK KR" font-size="21" font-weight="700" fill="#1F2937" text-anchor="middle">collector</text>
<text x="486.0" y="398.0" font-family="Noto Sans CJK KR" font-size="16" font-weight="400" fill="#6B7280" text-anchor="middle">수집</text>
<rect x="340" y="490" width="240" height="92" rx="14" fill="#FFFFFF" stroke="#D8DEE6" stroke-width="1.5" filter="url(#cardshadow)"/>
<path d="M 365 523.0 h 26 l -10 14 v 13 l -6 -4 v -9 z" fill="#34A853"/>
<text x="486.0" y="530.0" font-family="Noto Sans CJK KR" font-size="21" font-weight="700" fill="#1F2937" text-anchor="middle">preprocessor</text>
<text x="486.0" y="558.0" font-family="Noto Sans CJK KR" font-size="16" font-weight="400" fill="#6B7280" text-anchor="middle">병합·정제</text>
<rect x="600" y="560" width="142" height="84" rx="14" fill="#FFFFFF" stroke="#D8DEE6" stroke-width="1.5" filter="url(#cardshadow)"/>
<path d="M 638 616.0 C 626 602.0 627 594.0 638 588.0 C 649 594.0 650 602.0 638 616.0 z" fill="#9AA3AE"/>
<path d="M 627 597.0 a 11 11 0 0 1 22 0 a 11 14 0 0 1 -11 17 a 11 14 0 0 1 -11 -17 z" fill="#9AA3AE"/>
<circle cx="638" cy="598.0" r="4.5" fill="#FFFFFF"/>
<text x="697.0" y="596.0" font-family="Noto Sans CJK KR" font-size="21" font-weight="700" fill="#1F2937" text-anchor="middle">geo</text>
<text x="697.0" y="624.0" font-family="Noto Sans CJK KR" font-size="16" font-weight="400" fill="#6B7280" text-anchor="middle">좌표 변환</text>
<rect x="340" y="660" width="240" height="92" rx="14" fill="#FFFFFF" stroke="#D8DEE6" stroke-width="1.5" filter="url(#cardshadow)"/>
<ellipse cx="378" cy="695.0" rx="13" ry="5.5" fill="none" stroke="#34A853" stroke-width="3"/>
<path d="M 365 695.0 v 22 a 13 5.5 0 0 0 26 0 v -22" fill="none" stroke="#34A853" stroke-width="3"/>
<path d="M 365 706.0 a 13 5.5 0 0 0 26 0" fill="none" stroke="#34A853" stroke-width="3"/>
<text x="486.0" y="700.0" font-family="Noto Sans CJK KR" font-size="21" font-weight="700" fill="#1F2937" text-anchor="middle">sample_data</text>
<text x="486.0" y="728.0" font-family="Noto Sans CJK KR" font-size="16" font-weight="400" fill="#6B7280" text-anchor="middle">샘플 생성</text>
<rect x="820" y="300" width="240" height="92" rx="14" fill="#FFFFFF" stroke="#D8DEE6" stroke-width="1.5" filter="url(#cardshadow)"/>
<ellipse cx="858" cy="335.0" rx="13" ry="5.5" fill="none" stroke="#E8A100" stroke-width="3"/>
<path d="M 845 335.0 v 22 a 13 5.5 0 0 0 26 0 v -22" fill="none" stroke="#E8A100" stroke-width="3"/>
<path d="M 845 346.0 a 13 5.5 0 0 0 26 0" fill="none" stroke="#E8A100" stroke-width="3"/>
<text x="966.0" y="340.0" font-family="Noto Sans CJK KR" font-size="21" font-weight="700" fill="#1F2937" text-anchor="middle">raw</text>
<text x="966.0" y="368.0" font-family="Noto Sans CJK KR" font-size="16" font-weight="400" fill="#6B7280" text-anchor="middle">수집 원본</text>
<rect x="820" y="470" width="240" height="92" rx="14" fill="#FFFFFF" stroke="#D8DEE6" stroke-width="1.5" filter="url(#cardshadow)"/>
<rect x="844" y="503.0" width="18" height="24" rx="3" fill="none" stroke="#E8A100" stroke-width="3"/>
<rect x="850" y="508.0" width="18" height="24" rx="3" fill="#FFFFFF" stroke="#E8A100" stroke-width="3"/>
<text x="966.0" y="510.0" font-family="Noto Sans CJK KR" font-size="21" font-weight="700" fill="#1F2937" text-anchor="middle">processed</text>
<text x="966.0" y="538.0" font-family="Noto Sans CJK KR" font-size="16" font-weight="400" fill="#6B7280" text-anchor="middle">분기 스냅샷</text>
<rect x="820" y="650" width="240" height="92" rx="14" fill="#FFFFFF" stroke="#D8DEE6" stroke-width="1.5" filter="url(#cardshadow)"/>
<ellipse cx="858" cy="685.0" rx="13" ry="5.5" fill="none" stroke="#E8A100" stroke-width="3"/>
<path d="M 845 685.0 v 22 a 13 5.5 0 0 0 26 0 v -22" fill="none" stroke="#E8A100" stroke-width="3"/>
<path d="M 845 696.0 a 13 5.5 0 0 0 26 0" fill="none" stroke="#E8A100" stroke-width="3"/>
<text x="966.0" y="690.0" font-family="Noto Sans CJK KR" font-size="21" font-weight="700" fill="#1F2937" text-anchor="middle">sample</text>
<text x="966.0" y="718.0" font-family="Noto Sans CJK KR" font-size="16" font-weight="400" fill="#6B7280" text-anchor="middle">데모용</text>
<rect x="1170" y="195" width="240" height="88" rx="14" fill="#FFFFFF" stroke="#D8DEE6" stroke-width="1.5" filter="url(#cardshadow)"/>
<ellipse cx="1208" cy="228.0" rx="13" ry="5.5" fill="none" stroke="#00ACC1" stroke-width="3"/>
<path d="M 1195 228.0 v 22 a 13 5.5 0 0 0 26 0 v -22" fill="none" stroke="#00ACC1" stroke-width="3"/>
<path d="M 1195 239.0 a 13 5.5 0 0 0 26 0" fill="none" stroke="#00ACC1" stroke-width="3"/>
<text x="1316.0" y="233.0" font-family="Noto Sans CJK KR" font-size="21" font-weight="700" fill="#1F2937" text-anchor="middle">data_loader</text>
<text x="1316.0" y="261.0" font-family="Noto Sans CJK KR" font-size="16" font-weight="400" fill="#6B7280" text-anchor="middle">로딩 · 폴백</text>
<rect x="1170" y="355" width="240" height="88" rx="14" fill="#FFFFFF" stroke="#D8DEE6" stroke-width="1.5" filter="url(#cardshadow)"/>
<rect x="1194" y="400.0" width="6" height="12" rx="1.5" fill="#00ACC1"/>
<rect x="1202" y="392.0" width="6" height="20" rx="1.5" fill="#00ACC1"/>
<rect x="1210" y="396.0" width="6" height="16" rx="1.5" fill="#00ACC1"/>
<rect x="1218" y="386.0" width="6" height="26" rx="1.5" fill="#00ACC1"/>
<text x="1316.0" y="393.0" font-family="Noto Sans CJK KR" font-size="21" font-weight="700" fill="#1F2937" text-anchor="middle">metrics</text>
<text x="1316.0" y="421.0" font-family="Noto Sans CJK KR" font-size="16" font-weight="400" fill="#6B7280" text-anchor="middle">KPI · 집계</text>
<rect x="1158" y="512" width="178" height="88" rx="14" fill="#FFFFFF" stroke="#D8DEE6" stroke-width="1.5" filter="url(#cardshadow)"/>
<polyline points="1182,565.0 1191,554.0 1198,560.0 1209,546.0" fill="none" stroke="#00ACC1" stroke-width="3.5" stroke-linecap="round" stroke-linejoin="round"/>
<circle cx="1182" cy="565.0" r="3" fill="#00ACC1"/>
<circle cx="1191" cy="554.0" r="3" fill="#00ACC1"/>
<circle cx="1198" cy="560.0" r="3" fill="#00ACC1"/>
<circle cx="1209" cy="546.0" r="3" fill="#00ACC1"/>
<text x="1273.0" y="550.0" font-family="Noto Sans CJK KR" font-size="21" font-weight="700" fill="#1F2937" text-anchor="middle">charts</text>
<text x="1273.0" y="578.0" font-family="Noto Sans CJK KR" font-size="16" font-weight="400" fill="#6B7280" text-anchor="middle">차트</text>
<rect x="1352" y="512" width="178" height="88" rx="14" fill="#FFFFFF" stroke="#D8DEE6" stroke-width="1.5" filter="url(#cardshadow)"/>
<path d="M 1390 570.0 C 1378 556.0 1379 548.0 1390 542.0 C 1401 548.0 1402 556.0 1390 570.0 z" fill="#00ACC1"/>
<path d="M 1379 551.0 a 11 11 0 0 1 22 0 a 11 14 0 0 1 -11 17 a 11 14 0 0 1 -11 -17 z" fill="#00ACC1"/>
<circle cx="1390" cy="552.0" r="4.5" fill="#FFFFFF"/>
<text x="1467.0" y="550.0" font-family="Noto Sans CJK KR" font-size="21" font-weight="700" fill="#1F2937" text-anchor="middle">maps</text>
<text x="1467.0" y="578.0" font-family="Noto Sans CJK KR" font-size="16" font-weight="400" fill="#6B7280" text-anchor="middle">지도</text>
<rect x="1170" y="690" width="240" height="88" rx="14" fill="#FFFFFF" stroke="#D8DEE6" stroke-width="1.5" filter="url(#cardshadow)"/>
<path d="M 1197 719.0 h 15 l 7 7 v 23 h -22 z" fill="none" stroke="#00ACC1" stroke-width="3" stroke-linejoin="round"/>
<line x1="1202" y1="732.0" x2="1214" y2="732.0" stroke="#00ACC1" stroke-width="2.5"/>
<line x1="1202" y1="739.0" x2="1214" y2="739.0" stroke="#00ACC1" stroke-width="2.5"/>
<line x1="1202" y1="746.0" x2="1214" y2="746.0" stroke="#00ACC1" stroke-width="2.5"/>
<text x="1316.0" y="728.0" font-family="Noto Sans CJK KR" font-size="21" font-weight="700" fill="#1F2937" text-anchor="middle">report</text>
<text x="1316.0" y="756.0" font-family="Noto Sans CJK KR" font-size="16" font-weight="400" fill="#6B7280" text-anchor="middle">README 갱신</text>
<path d="M 1481 719 h 15 l 7 7 v 23 h -22 z" fill="none" stroke="#00ACC1" stroke-width="3" stroke-linejoin="round"/>
<line x1="1486" y1="732" x2="1498" y2="732" stroke="#00ACC1" stroke-width="2.5"/>
<line x1="1486" y1="739" x2="1498" y2="739" stroke="#00ACC1" stroke-width="2.5"/>
<line x1="1486" y1="746" x2="1498" y2="746" stroke="#00ACC1" stroke-width="2.5"/>
<text x="1492" y="772" font-family="Noto Sans CJK KR" font-size="14" font-weight="600" fill="#00838F" text-anchor="middle">README.md</text>
<rect x="1608" y="195" width="254" height="650" rx="16" fill="#FFFFFF" stroke="#37414C" stroke-width="2" />
<text x="1735" y="232" font-family="Noto Sans CJK KR" font-size="20" font-weight="700" fill="#1F2937" text-anchor="middle">Streamlit app</text>
<circle cx="1630" cy="252" r="5" fill="#FF5F57"/>
<circle cx="1648" cy="252" r="5" fill="#FEBC2E"/>
<circle cx="1666" cy="252" r="5" fill="#28C840"/>
<rect x="1622" y="268" width="72" height="34" rx="8" fill="#2E6BE6" stroke="#2E6BE6" stroke-width="1" />
<text x="1658" y="291" font-family="Noto Sans CJK KR" font-size="16" font-weight="700" fill="#FFFFFF" text-anchor="middle">현황</text>
<rect x="1700" y="268" width="72" height="34" rx="8" fill="#EEF1F5" stroke="#D8DEE6" stroke-width="1" />
<text x="1736" y="291" font-family="Noto Sans CJK KR" font-size="16" font-weight="700" fill="#4B5563" text-anchor="middle">추이</text>
<rect x="1778" y="268" width="72" height="34" rx="8" fill="#EEF1F5" stroke="#D8DEE6" stroke-width="1" />
<text x="1814" y="291" font-family="Noto Sans CJK KR" font-size="16" font-weight="700" fill="#4B5563" text-anchor="middle">지도</text>
<rect x="1622" y="318" width="116" height="186" rx="10" fill="#F6F8FA" stroke="#E2E7ED" stroke-width="1" />
<rect x="1746" y="318" width="116" height="186" rx="10" fill="#F6F8FA" stroke="#E2E7ED" stroke-width="1" />
<rect x="1622" y="520" width="116" height="186" rx="10" fill="#F6F8FA" stroke="#E2E7ED" stroke-width="1" />
<rect x="1746" y="520" width="116" height="186" rx="10" fill="#F6F8FA" stroke="#E2E7ED" stroke-width="1" />
<rect x="1638" y="426" width="16" height="52" rx="3" fill="#3B82F6"/>
<rect x="1662" y="392" width="16" height="86" rx="3" fill="#3B82F6"/>
<rect x="1686" y="412" width="16" height="66" rx="3" fill="#3B82F6"/>
<rect x="1710" y="368" width="16" height="110" rx="3" fill="#3B82F6"/>
<polyline points="1758,460 1786,408 1812,432 1850,368" fill="none" stroke="#2E6BE6" stroke-width="4" stroke-linecap="round"/>
<circle cx="1758" cy="460" r="4.5" fill="#2E6BE6"/>
<circle cx="1786" cy="408" r="4.5" fill="#2E6BE6"/>
<circle cx="1812" cy="432" r="4.5" fill="#2E6BE6"/>
<circle cx="1850" cy="368" r="4.5" fill="#2E6BE6"/>
<path d="M 1680 614 C 1668 600 1669 592 1680 586 C 1691 592 1692 600 1680 614 z" fill="#3B82F6"/>
<path d="M 1669 595 a 11 11 0 0 1 22 0 a 11 14 0 0 1 -11 17 a 11 14 0 0 1 -11 -17 z" fill="#3B82F6"/>
<circle cx="1680" cy="596" r="4.5" fill="#FFFFFF"/>
<rect x="1632" y="540" width="96" height="150" rx="8" fill="#E8F0FE" opacity="0.5"/>
<path d="M 1680 614 C 1668 600 1669 592 1680 586 C 1691 592 1692 600 1680 614 z" fill="#3B82F6"/>
<path d="M 1669 595 a 11 11 0 0 1 22 0 a 11 14 0 0 1 -11 17 a 11 14 0 0 1 -11 -17 z" fill="#3B82F6"/>
<circle cx="1680" cy="596" r="4.5" fill="#FFFFFF"/>
<circle cx="1804" cy="606" r="42" fill="none" stroke="#E2E7ED" stroke-width="18"/>
<path d="M 1804 564 a 42 42 0 0 1 40 55" fill="none" stroke="#34A853" stroke-width="18"/>
<path d="M 1844 619 a 42 42 0 0 1 -62 21" fill="none" stroke="#FBBC04" stroke-width="18"/>
<path d="M 1782 640 a 42 42 0 0 1 -16 -52" fill="none" stroke="#4285F4" stroke-width="18"/>
<path d="M 265 252 L 305 252 L 305 376 L 340 376" fill="none" stroke="#333333" stroke-width="2.6"  marker-end="url(#arr_333333)"/>
<path d="M 580 346 L 820 346" fill="none" stroke="#333333" stroke-width="2.6"  marker-end="url(#arr_333333)"/>
<path d="M 940 392 L 940 442 L 500 442 L 500 490" fill="none" stroke="#333333" stroke-width="2.6"  marker-end="url(#arr_333333)"/>
<path d="M 580 536 L 820 536" fill="none" stroke="#333333" stroke-width="2.6"  marker-end="url(#arr_333333)"/>
<path d="M 1060 516 L 1108 516 L 1108 239 L 1170 239" fill="none" stroke="#333333" stroke-width="2.6"  marker-end="url(#arr_333333)"/>
<path d="M 1290 283 L 1290 355" fill="none" stroke="#333333" stroke-width="2.6"  marker-end="url(#arr_333333)"/>
<path d="M 1247 443 L 1247 512" fill="none" stroke="#333333" stroke-width="2.6"  marker-end="url(#arr_333333)"/>
<path d="M 1333 443 L 1441 443 L 1441 512" fill="none" stroke="#333333" stroke-width="2.6"  marker-end="url(#arr_333333)"/>
<path d="M 1530 556 L 1608 556" fill="none" stroke="#333333" stroke-width="2.6"  marker-end="url(#arr_333333)"/>
<path d="M 1247 600 L 1247 636 L 1608 636" fill="none" stroke="#333333" stroke-width="2.6"  marker-end="url(#arr_333333)"/>
<path d="M 440 270 L 440 330" fill="none" stroke="#34A853" stroke-width="2.6" stroke-dasharray="7 6" marker-end="url(#arr_34A853)"/>
<path d="M 660 270 L 660 462 L 530 462 L 530 490" fill="none" stroke="#34A853" stroke-width="2.6" stroke-dasharray="7 6" marker-end="url(#arr_34A853)"/>
<path d="M 700 185 L 700 176 L 1140 176 L 1140 734 L 1170 734" fill="none" stroke="#34A853" stroke-width="2.6" stroke-dasharray="7 6" marker-end="url(#arr_34A853)"/>
<path d="M 600 602 L 520 582" fill="none" stroke="#888888" stroke-width="2.2" stroke-dasharray="5 5" />
<path d="M 820 556 L 752 556 L 752 700 L 580 700" fill="none" stroke="#F4A100" stroke-width="2.6" stroke-dasharray="7 6" marker-end="url(#arr_F4A100)"/>
<path d="M 580 724 L 820 724" fill="none" stroke="#F4A100" stroke-width="2.6" stroke-dasharray="7 6" marker-end="url(#arr_F4A100)"/>
<path d="M 1060 696 L 1088 696 L 1088 263 L 1170 263" fill="none" stroke="#00ACC1" stroke-width="2.6" stroke-dasharray="7 6" marker-end="url(#arr_00ACC1)"/>
<path d="M 1410 734 L 1462 734" fill="none" stroke="#00ACC1" stroke-width="2.6" stroke-dasharray="7 6" marker-end="url(#arr_00ACC1)"/>
<line x1="60" y1="1006" x2="104" y2="1006" stroke="#333333" stroke-width="3"/>
<text x="112" y="1012" font-family="Noto Sans CJK KR" font-size="17" font-weight="600" fill="#374151" text-anchor="start">데이터 흐름</text>
<line x1="240" y1="1006" x2="284" y2="1006" stroke="#34A853" stroke-width="3" stroke-dasharray="7 6"/>
<text x="292" y="1012" font-family="Noto Sans CJK KR" font-size="17" font-weight="600" fill="#374151" text-anchor="start">제어 (오케스트레이터)</text>
<line x1="498" y1="1006" x2="542" y2="1006" stroke="#F4A100" stroke-width="3" stroke-dasharray="7 6"/>
<text x="550" y="1012" font-family="Noto Sans CJK KR" font-size="17" font-weight="600" fill="#374151" text-anchor="start">샘플 생성</text>
<line x1="660" y1="1006" x2="704" y2="1006" stroke="#00ACC1" stroke-width="3" stroke-dasharray="7 6"/>
<text x="712" y="1012" font-family="Noto Sans CJK KR" font-size="17" font-weight="600" fill="#374151" text-anchor="start">샘플 폴백 · 문서 갱신</text>
<rect x="1180" y="982" width="130" height="48" rx="24" fill="#F3EEFD" stroke="#7C3AED" stroke-width="1.5" />
<circle cx="1206" cy="1006" r="8" fill="#7C3AED"/>
<text x="1224" y="1013" font-family="Noto Sans CJK KR" font-size="18" font-weight="700" fill="#7C3AED" text-anchor="start">pytest</text>
<rect x="1334" y="982" width="108" height="48" rx="24" fill="#E8F7F0" stroke="#0E9F6E" stroke-width="1.5" />
<circle cx="1360" cy="1006" r="8" fill="#0E9F6E"/>
<text x="1378" y="1013" font-family="Noto Sans CJK KR" font-size="18" font-weight="700" fill="#0E9F6E" text-anchor="start">ruff</text>
<rect x="1466" y="982" width="251" height="48" rx="24" fill="#EAF1FE" stroke="#2563EB" stroke-width="1.5" />
<circle cx="1492" cy="1006" r="8" fill="#2563EB"/>
<text x="1510" y="1013" font-family="Noto Sans CJK KR" font-size="18" font-weight="700" fill="#2563EB" text-anchor="start">GitHub Actions CI</text>
<rect x="1741" y="982" width="141" height="48" rx="24" fill="#FDF3E3" stroke="#D97706" stroke-width="1.5" />
<circle cx="1767" cy="1006" r="8" fill="#D97706"/>
<text x="1785" y="1013" font-family="Noto Sans CJK KR" font-size="18" font-weight="700" fill="#D97706" text-anchor="start">Parquet</text>
</svg>